<?xml version="1.0" standalone="no"?>
<!DOCTYPE svg PUBLIC "-//W3C//DTD SVG 20010904//EN"
 "http://www.w3.org/TR/2001/REC-SVG-20010904/DTD/svg10.dtd">
<svg version="1.0" xmlns="http://www.w3.org/2000/svg"
 width="250.000000pt" height="250.000000pt" viewBox="0 0 250.000000 250.000000"
 preserveAspectRatio="xMidYMid meet">
<metadata>
Created by potrace 1.14, written by Peter Selinger 2001-2017
</metadata>
<g transform="translate(0.000000,250.000000) scale(0.100000,-0.100000)"
fill="#000000" stroke="none">
<path d="M1181 2478 c-453 -31 -834 -283 -1034 -683 -112 -225 -151 -484 -111
-736 55 -349 238 -635 534 -836 183 -124 453 -205 685 -205 100 1 297 33 393
66 305 105 562 331 707 624 44 89 88 221 100 302 4 25 9 54 11 65 13 61 15
216 4 306 -35 300 -144 530 -352 739 -247 248 -598 382 -937 358z m-617 -1233
c3 -8 1 -15 -4 -15 -6 0 -10 7 -10 15 0 8 2 15 4 15 2 0 6 -7 10 -15z"/>
</g>
</svg>
