<?xml version="1.0" standalone="no"?>
<!DOCTYPE svg PUBLIC "-//W3C//DTD SVG 20010904//EN"
 "http://www.w3.org/TR/2001/REC-SVG-20010904/DTD/svg10.dtd">
<svg version="1.0" xmlns="http://www.w3.org/2000/svg"
 width="250.000000pt" height="250.000000pt" viewBox="0 0 250.000000 250.000000"
 preserveAspectRatio="xMidYMid meet">
<metadata>
Created by potrace 1.14, written by Peter Selinger 2001-2017
</metadata>
<g transform="translate(0.000000,250.000000) scale(0.100000,-0.100000)"
fill="#000000" stroke="none">
<path d="M1042 2225 c-74 -17 -154 -51 -217 -95 -62 -43 -149 -150 -190 -235
-65 -134 -65 -137 -86 -640 -2 -70 23 -339 36 -385 76 -254 295 -420 551 -420
98 0 192 22 263 60 30 17 60 30 66 30 9 0 98 -60 225 -153 l25 -18 -30 6 c-16
4 -42 9 -56 12 -15 3 -30 0 -34 -7 -8 -13 21 -49 50 -60 21 -8 75 13 75 30 0
20 22 9 96 -46 85 -63 94 -67 112 -56 27 18 58 212 33 212 -13 0 -61 -59 -61
-76 0 -25 -39 -15 -80 22 -22 20 -40 40 -40 45 0 15 40 10 46 -6 15 -38 83
-38 97 -1 7 18 -38 46 -72 46 -18 0 -20 5 -14 31 5 28 4 30 -18 27 -16 -2 -30
-15 -42 -40 -9 -21 -20 -38 -23 -38 -3 0 -31 20 -62 43 -31 24 -76 55 -99 68
-24 13 -43 26 -43 29 0 3 28 26 63 51 182 136 277 271 339 486 20 68 23 100
22 248 0 156 -3 178 -28 260 -33 107 -90 219 -151 297 -90 115 -255 226 -390
263 -85 23 -283 29 -363 10z m308 -58 c197 -60 321 -199 397 -444 26 -85 27
-97 28 -318 0 -160 -4 -248 -14 -290 -35 -155 -120 -313 -219 -409 -57 -55
-60 -55 -126 -2 l-28 23 17 59 c22 73 23 169 1 250 -20 78 -20 84 3 84 45 0
44 23 -4 157 -26 70 -58 143 -72 161 -15 20 -56 48 -106 73 -45 23 -84 43 -86
45 -3 3 3 18 12 33 24 41 22 116 -7 176 -12 28 -26 68 -30 90 -11 57 -21 65
-83 65 -30 0 -63 5 -74 11 -27 14 -57 3 -65 -24 -3 -12 -25 -41 -47 -64 l-41
-43 20 -62 c20 -62 21 -63 55 -60 31 3 32 2 14 -11 -18 -14 -18 -16 -2 -41 10
-14 26 -26 36 -26 12 0 23 -11 28 -27 13 -36 6 -53 -18 -53 -20 0 -157 -66
-246 -118 l-51 -30 -6 61 c-10 100 9 295 37 376 45 129 99 203 201 276 71 50
118 71 201 91 70 16 207 12 275 -9z m-238 -398 c10 -20 21 -59 25 -87 5 -49 4
-53 -30 -87 -20 -20 -45 -35 -59 -35 -46 0 -118 96 -118 157 0 25 8 33 63 60
34 18 71 31 81 30 11 -1 28 -18 38 -38z m-5 -266 c-6 -34 -31 -73 -41 -62 -2
2 -7 21 -11 41 -6 34 -5 39 16 47 38 16 42 13 36 -26z m-99 14 c6 -6 13 -26
17 -42 l7 -30 -26 30 c-26 30 -33 55 -17 55 5 0 13 -6 19 -13z m261 -66 c41
-29 59 -61 101 -176 21 -60 38 -110 37 -110 -1 -1 -29 -11 -62 -22 -33 -11
-67 -23 -76 -27 -12 -5 -19 12 -38 99 -17 75 -28 105 -39 105 -10 0 -13 -8 -9
-27 4 -27 31 -153 42 -200 3 -13 12 -23 20 -23 27 0 39 -44 43 -159 4 -95 2
-112 -9 -105 -8 4 -51 35 -97 67 l-83 60 30 31 c40 42 61 95 61 157 0 45 -4
55 -34 85 -39 39 -67 43 -138 18 -26 -8 -61 -14 -80 -12 -32 3 -34 5 -48 67
-9 36 -21 66 -28 69 -7 2 -12 -2 -12 -10 0 -7 -11 -13 -27 -13 -16 -1 -37 -4
-49 -8 -16 -6 -23 -1 -37 27 l-16 35 106 55 c59 31 109 56 113 56 3 0 26 -20
50 -45 24 -25 52 -45 61 -45 26 0 67 38 80 74 l12 34 51 -19 c28 -11 62 -28
75 -38z m-563 -122 c15 -30 15 -32 -7 -55 -26 -28 -34 -25 -43 17 -4 23 -1 38
10 51 22 23 21 23 40 -13z m-71 -86 c37 -98 117 -188 177 -198 36 -6 38 -8 21
-21 -38 -29 -77 -17 -148 44 -68 58 -97 100 -110 160 -7 34 6 62 30 62 7 0 20
-21 30 -47z m140 -25 c8 -9 47 -27 87 -38 126 -36 161 -53 181 -87 15 -27 40
-133 32 -141 -7 -8 -91 51 -144 100 -49 46 -68 58 -106 63 -51 8 -98 36 -129
78 l-21 29 29 25 c29 24 30 24 43 7 7 -11 20 -27 28 -36z m589 -125 c28 -96
31 -249 5 -321 -21 -60 -34 -31 -40 94 -4 65 -9 135 -13 154 -4 19 -9 45 -12
57 -3 14 2 23 13 26 34 9 42 7 47 -10z m-690 -64 c14 -11 26 -31 26 -43 0 -12
9 -32 21 -44 17 -19 29 -22 88 -20 63 3 72 0 127 -34 32 -20 58 -40 57 -45 -1
-4 -27 -11 -57 -14 -85 -10 -126 -42 -149 -118 l-13 -44 -49 78 c-52 84 -79
158 -90 248 -8 63 -2 69 39 36z m224 -13 c3 -15 1 -16 -17 -6 -12 6 -19 16
-15 21 9 15 28 5 32 -15z m230 -248 c53 -31 82 -59 82 -80 0 -13 22 -29 77
-56 43 -20 79 -42 80 -48 7 -23 -98 -58 -174 -59 -66 0 -74 2 -104 30 -51 48
-69 98 -69 193 l0 84 35 -21 c19 -12 52 -31 73 -43z m808 -424 c-4 -9 -9 -15
-11 -12 -3 3 -3 13 1 22 4 9 9 15 11 12 3 -3 3 -13 -1 -22z"/>
<path d="M1751 296 c-7 -8 -11 -27 -9 -42 2 -22 10 -30 37 -37 49 -12 60 4 34
50 -24 42 -44 51 -62 29z"/>
</g>
</svg>
